{"title":"Walking.With.Dinosaurs.2013.720p.BRRip.x264.AC3-MiLLENiUM (Silve","uid":9759635,"size":2825122060,"categoryP":"video","categoryS":"hd___movies","magnet":"?xt=urn:btih:d83e4ce65246b1576e7ac84876b6790892cdb2a4&amp;dn=Walking.With.Dinosaurs.2013.720p.BRRip.x264.AC3-MiLLENiUM+%28Silve&amp;tr=udp%3A%2F%2Ftracker.openbittorrent.com%3A80&amp;tr=udp%3A%2F%2Fopen.demonii.com%3A1337&amp;tr=udp%3A%2F%2Ftracker.coppersurfer.tk%3A6969&amp;tr=udp%3A%2F%2Fexodus.desync.com%3A6969","seeders":2,"leechers":0,"uploader":"AliBaloch","files":3,"time":1394794053,"description":"SilverTorrent - Clean And Verified Torrents Download\n\n------------------------------------------------------\n\nWalking.With.Dinosaurs.2013.720p.BRRip.x264.AC3-MiLLENiUM\n &lt;a href=&quot;\nhttp://www.imdb.com/title/tt1762399/&quot; rel=&quot;nofollow&quot; target=&quot;_NEW&quot;&gt;\nhttp://www.imdb.com/title/tt1762399/&lt;/a&gt;\n\nSource...............: BluRay,Thanks\n\n\n\nGeneral\nUnique ID                                : 193116447889846950226932616026947686280 (0x9148DFFE53C472F3B1FF9CA138158F88)\nComplete name                            : Walking.With.Dinosaurs.2013.720p.BRRip.x264.AC3-MiLLENiUM.mkv\nFormat                                   : Matroska\nFormat version                           : Version 2\nFile size                                : 2.61 GiB\nDuration                                 : 1h 27mn\nOverall bit rate mode                    : Variable\nOverall bit rate                         : 4 279 Kbps\nEncoded date                             : UTC 2014-03-11 23:58:29\nWriting application                      : mkvmerge v6.5.0 ('Isn't she lovely') built on Oct 20 2013 12:50:05\nWriting library                          : libebml v1.3.0 + libmatroska v1.4.1\n\n\n\nID                                       : 1\nFormat                                   : AVC\nFormat/Info                              : Advanced Video Codec\nFormat profile                           : &lt;a class=&quot;__cf_email__&quot; href=&quot;/cdn-cgi/l/email-protection&quot; data-cfemail=&quot;c088a9a7a8808cf4eef1&quot;&gt;[email&amp;#160;protected]&lt;/a&gt;&lt;script cf-hash='f9e31' type=&quot;text/javascript&quot;&gt;\n/* &lt;![CDATA[ */!function(){try{var t=&quot;currentScript&quot;in document?document.currentScript:function(){for(var t=document.getElementsByTagName(&quot;script&quot;),e=t.length;e--;)if(t[e].getAttribute(&quot;cf-hash&quot;))return t[e]}();if(t&amp;&amp;t.previousSibling){var e,r,n,i,c=t.previousSibling,a=c.getAttribute(&quot;data-cfemail&quot;);if(a){for(e=&quot;&quot;,r=parseInt(a.substr(0,2),16),n=2;a.length-n;n+=2)i=parseInt(a.substr(n,2),16)^r,e+=String.fromCharCode(i);e=document.createTextNode(e),c.parentNode.replaceChild(e,c)}}}catch(u){}}();/* ]]&gt; */&lt;/script&gt;\nFormat settings, CABAC                   : Yes\nFormat settings, ReFrames                : 3 frames\nFormat settings, GOP                     : M=4, N=23\nCodec ID                                 : V_MPEG4/ISO/AVC\nDuration                                 : 1h 27mn\nBit rate mode                            : Variable\nBit rate                                 : 3 553 Kbps\nMaximum bit rate                         : 40.0 Mbps\nWidth                                    : 1 280 pixels\nHeight                                   : 536 pixels\nDisplay aspect ratio                     : 2.40:1\nFrame rate mode                          : Constant\nFrame rate                               : 23.976 fps\nColor space                              : YUV\nChroma subsampling                       : 4:2:0\nBit depth                                : 8 bits\nScan type                                : Progressive\nBits/(Pixel*Frame)                       : 0.216\nStream size                              : 2.17 GiB (83%)\nWriting library                          : x264 core 138 r2358 9e941d1\nLanguage                                 : English\nDefault                                  : Yes\nForced                                   : No\n\n\n\n\nID                                       : 2\nFormat                                   : AC-3\nFormat/Info                              : Audio Coding 3\nMode extension                           : CM (complete main)\nFormat settings, Endianness              : Big\nCodec ID                                 : A_AC3\nDuration                                 : 1h 27mn\nBit rate mode                            : Constant\nBit rate                                 : 640 Kbps\nChannel(s)                               : 6 channels\nChannel positions                        : Front: L C R, Side: L R, LFE\nSampling rate                            : 48.0 KHz\nBit depth                                : 16 bits\nCompression mode                         : Lossy\nStream size                              : 400 MiB (15%)\nLanguage                                 : English\nDefault                                  : Yes\nForced                                   : No\n\nText #1\nID                                       : 3\nFormat                                   : UTF-8\nCodec ID                                 : S_TEXT/UTF8\nCodec ID/Info                            : UTF-8 Plain Text\nLanguage                                 : English\nDefault                                  : Yes\nForced                                   : No\n\nText #2\nID                                       : 4\nFormat                                   : UTF-8\nCodec ID                                 : S_TEXT/UTF8\nCodec ID/Info                            : UTF-8 Plain Text\nLanguage                                 : English\nDefault                                  : No\nForced                                   : No\n\nMenu\n00:00:00.000                             : en:00:00:00.000\n00:01:44.771                             : en:00:01:44.771\n00:05:21.196                             : en:00:05:21.196\n00:07:27.989                             : en:00:07:27.989\n00:12:06.351                             : en:00:12:06.351\n00:14:47.220                             : en:00:14:47.220\n0017.gif04.190                             : en:0017.gif04.190\n0018.gif30.609                             : en:0018.gif30.609\n00:21:47.389                             : en:00:21:47.389\n00:24:30.761                             : en:00:24:30.761\n00:27:07.459                             : en:00:27:07.459\n00:28:28.206                             : en:00:28:28.206\n00:30:40.756                             : en:00:30:40.756\n00:32:58.643                             : en:00:32:58.643\n00:37:38.006                             : en:00:37:38.006\n00:42:02.562                             : en:00:42:02.562\n00:44:00.096                             : en:00:44:00.096\n00:47:36.103                             : en:00:47:36.103\n00:50:59.473                             : en:00:50:59.473\n00:52:51.043                             : en:00:52:51.043\n00:56:49.281                             : en:00:56:49.281\n00:58:20.997                             : en:00:58:20.997\n01:02:48.973                             : en:01:02:48.973\n01:06:45.627                             : en:01:06:45.627\n01:10:40.319                             : en:01:10:40.319\n01:16:54.485                             : en:01:16:54.485\n0118.gif40.466                             : en:0118.gif40.466\n01:20:15.811                             : en:01:20:15.811\n &lt;a href=&quot;\nhttp://lookpic.com/O/i2/245/thsskRjz.png&quot; rel=&quot;nofollow&quot; target=&quot;_NEW&quot;&gt;\nhttp://lookpic.com/O/i2/245/thsskRjz.png&lt;/a&gt; &lt;a href=&quot;\nhttp://lookpic.com/O/i2/949/HFnFQoAH.png&quot; rel=&quot;nofollow&quot; target=&quot;_NEW&quot;&gt;\nhttp://lookpic.com/O/i2/949/HFnFQoAH.png&lt;/a&gt; &lt;a href=&quot;\nhttp://lookpic.com/O/i2/824/SLhlgJp.png&quot; rel=&quot;nofollow&quot; target=&quot;_NEW&quot;&gt;\nhttp://lookpic.com/O/i2/824/SLhlgJp.png&lt;/a&gt; &lt;a href=&quot;\nhttp://lookpic.com/O/i2/362/YOku5MGQ.png&quot; rel=&quot;nofollow&quot; target=&quot;_NEW&quot;&gt;\nhttp://lookpic.com/O/i2/362/YOku5MGQ.png&lt;/a&gt; &lt;a href=&quot;\nhttp://s7.postimg.org/qqxmuctmz/mil.png&quot; rel=&quot;nofollow&quot; target=&quot;_NEW&quot;&gt;\nhttp://s7.postimg.org/qqxmuctmz/mil.png&lt;/a&gt;\n\n------------------------------------------------------\nSilverTorrent - Clean And Verified Torrents Download\n\n","torrent":{"xt":"urn:btih:d83e4ce65246b1576e7ac84876b6790892cdb2a4","amp;dn":"Walking.With.Dinosaurs.2013.720p.BRRip.x264.AC3-MiLLENiUM+%28Silve","amp;tr":["udp%3A%2F%2Ftracker.openbittorrent.com%3A80","udp%3A%2F%2Fopen.demonii.com%3A1337","udp%3A%2F%2Ftracker.coppersurfer.tk%3A6969","udp%3A%2F%2Fexodus.desync.com%3A6969"],"infoHash":"d83e4ce65246b1576e7ac84876b6790892cdb2a4","infoHashBuffer":{"type":"Buffer","data":[216,62,76,230,82,70,177,87,110,122,200,72,118,182,121,8,146,205,178,164]},"announce":[],"urlList":[]}}